<mxfile host="app.diagrams.net" modified="2021-02-25T13:06:54.030Z" agent="5.0 (Windows NT 10.0; Win64; x64) AppleWebKit/537.36 (KHTML, like Gecko) Chrome/88.0.4324.182 Safari/537.36" etag="BRL2sM4i1nXWs6GfOr-E" version="14.4.3" type="github">
  <diagram id="I3dRK0lwcM8-JoRVxsiA" name="ページ1">
    <mxGraphModel dx="1955" dy="896" grid="1" gridSize="10" guides="1" tooltips="1" connect="1" arrows="1" fold="1" page="1" pageScale="1" pageWidth="1600" pageHeight="900" math="0" shadow="0">
      <root>
        <mxCell id="0" />
        <mxCell id="1" parent="0" />
        <mxCell id="121" value="" style="points=[[0,0],[0.25,0],[0.5,0],[0.75,0],[1,0],[1,0.25],[1,0.5],[1,0.75],[1,1],[0.75,1],[0.5,1],[0.25,1],[0,1],[0,0.75],[0,0.5],[0,0.25]];outlineConnect=0;gradientColor=none;html=1;whiteSpace=wrap;fontSize=12;fontStyle=0;shape=mxgraph.aws4.group;grIcon=mxgraph.aws4.group_aws_cloud_alt;strokeColor=#232F3E;fillColor=none;verticalAlign=top;align=left;spacingLeft=30;fontColor=#232F3E;dashed=0;dashPattern=1 1;" parent="1" vertex="1">
          <mxGeometry x="440" y="160" width="1080" height="660" as="geometry" />
        </mxCell>
        <mxCell id="109" value="VPC" style="points=[[0,0],[0.25,0],[0.5,0],[0.75,0],[1,0],[1,0.25],[1,0.5],[1,0.75],[1,1],[0.75,1],[0.5,1],[0.25,1],[0,1],[0,0.75],[0,0.5],[0,0.25]];outlineConnect=0;gradientColor=none;html=1;whiteSpace=wrap;fontSize=12;fontStyle=0;shape=mxgraph.aws4.group;grIcon=mxgraph.aws4.group_vpc;strokeColor=#248814;fillColor=none;verticalAlign=top;align=left;spacingLeft=30;fontColor=#AAB7B8;dashed=0;dashPattern=1 1;" parent="1" vertex="1">
          <mxGeometry x="450" y="200" width="230" height="320" as="geometry" />
        </mxCell>
        <mxCell id="103" value="" style="rounded=0;whiteSpace=wrap;html=1;strokeWidth=3;fillColor=#dae8fc;strokeColor=none;" parent="1" vertex="1">
          <mxGeometry x="460" y="370" width="210" height="140" as="geometry" />
        </mxCell>
        <mxCell id="55" value="VPC" style="points=[[0,0],[0.25,0],[0.5,0],[0.75,0],[1,0],[1,0.25],[1,0.5],[1,0.75],[1,1],[0.75,1],[0.5,1],[0.25,1],[0,1],[0,0.75],[0,0.5],[0,0.25]];outlineConnect=0;gradientColor=none;html=1;whiteSpace=wrap;fontSize=12;fontStyle=0;shape=mxgraph.aws4.group;grIcon=mxgraph.aws4.group_vpc;strokeColor=#248814;fillColor=none;verticalAlign=top;align=left;spacingLeft=30;fontColor=#AAB7B8;dashed=0;dashPattern=1 1;" parent="1" vertex="1">
          <mxGeometry x="840" y="200" width="670" height="490" as="geometry" />
        </mxCell>
        <mxCell id="49" value="" style="rounded=0;whiteSpace=wrap;html=1;strokeWidth=3;gradientColor=#DDEBF7;fontColor=#000000;dashed=1;fillColor=none;dashPattern=1 1;strokeColor=#CC6600;" parent="1" vertex="1">
          <mxGeometry x="850" y="240" width="210" height="380" as="geometry" />
        </mxCell>
        <mxCell id="48" value="" style="rounded=0;whiteSpace=wrap;html=1;strokeWidth=3;gradientColor=#DDEBF7;fontColor=#000000;dashed=1;fillColor=none;dashPattern=1 1;strokeColor=#CC6600;" parent="1" vertex="1">
          <mxGeometry x="1070" y="240" width="210" height="380" as="geometry" />
        </mxCell>
        <mxCell id="47" value="" style="rounded=0;whiteSpace=wrap;html=1;strokeWidth=3;gradientColor=#DDEBF7;fontColor=#000000;dashed=1;fillColor=none;dashPattern=1 1;strokeColor=#CC6600;" parent="1" vertex="1">
          <mxGeometry x="1290" y="240" width="210" height="380" as="geometry" />
        </mxCell>
        <mxCell id="39" value="" style="rounded=0;whiteSpace=wrap;html=1;strokeWidth=3;fillColor=#dae8fc;strokeColor=none;" parent="1" vertex="1">
          <mxGeometry x="860" y="310" width="190" height="300" as="geometry" />
        </mxCell>
        <mxCell id="38" value="" style="rounded=0;whiteSpace=wrap;html=1;strokeWidth=3;fillColor=#dae8fc;strokeColor=none;" parent="1" vertex="1">
          <mxGeometry x="1080" y="310" width="190" height="300" as="geometry" />
        </mxCell>
        <mxCell id="37" value="" style="rounded=0;whiteSpace=wrap;html=1;strokeWidth=3;fillColor=#dae8fc;strokeColor=none;" parent="1" vertex="1">
          <mxGeometry x="1300" y="310" width="190" height="300" as="geometry" />
        </mxCell>
        <mxCell id="19" value="" style="rounded=0;whiteSpace=wrap;html=1;strokeColor=#000080;fillColor=#FFFFFF;strokeWidth=3;" parent="1" vertex="1">
          <mxGeometry x="1091" y="320" width="170" height="240" as="geometry" />
        </mxCell>
        <mxCell id="20" value="Amazon Linux 2" style="rounded=0;whiteSpace=wrap;html=1;strokeColor=#000080;fillColor=#FFFFFF;strokeWidth=3;fontColor=#000000;" parent="1" vertex="1">
          <mxGeometry x="1101" y="520" width="150" height="30" as="geometry" />
        </mxCell>
        <mxCell id="21" value="kubelet" style="rounded=0;whiteSpace=wrap;html=1;strokeColor=#000080;fillColor=#FFFFFF;strokeWidth=3;fontColor=#000000;" parent="1" vertex="1">
          <mxGeometry x="1101" y="480" width="150" height="30" as="geometry" />
        </mxCell>
        <mxCell id="22" value="kube-proxy" style="rounded=0;whiteSpace=wrap;html=1;strokeColor=#000080;fillColor=#FFFFFF;strokeWidth=3;fontColor=#000000;" parent="1" vertex="1">
          <mxGeometry x="1101" y="438.5" width="150" height="30" as="geometry" />
        </mxCell>
        <mxCell id="24" value="coredns" style="rounded=0;whiteSpace=wrap;html=1;strokeColor=#000080;fillColor=#FFFFFF;strokeWidth=3;fontColor=#000000;" parent="1" vertex="1">
          <mxGeometry x="1181" y="400" width="70" height="30" as="geometry" />
        </mxCell>
        <mxCell id="25" value="" style="outlineConnect=0;fontColor=#232F3E;gradientColor=#F78E04;gradientDirection=north;fillColor=#D05C17;strokeColor=#ffffff;dashed=0;verticalLabelPosition=bottom;verticalAlign=top;align=center;html=1;fontSize=12;fontStyle=0;aspect=fixed;shape=mxgraph.aws4.resourceIcon;resIcon=mxgraph.aws4.ec2;" parent="1" vertex="1">
          <mxGeometry x="1090" y="320" width="30" height="30" as="geometry" />
        </mxCell>
        <mxCell id="26" value="App Pod" style="rounded=0;whiteSpace=wrap;html=1;strokeColor=#000080;fillColor=#FFFFFF;strokeWidth=3;fontColor=#000000;" parent="1" vertex="1">
          <mxGeometry x="1101" y="360" width="150" height="30" as="geometry" />
        </mxCell>
        <mxCell id="27" value="&lt;b&gt;Worker&lt;/b&gt;" style="text;html=1;strokeColor=none;fillColor=none;align=center;verticalAlign=middle;whiteSpace=wrap;rounded=0;fontColor=#000000;" parent="1" vertex="1">
          <mxGeometry x="1201" y="325" width="50" height="20" as="geometry" />
        </mxCell>
        <mxCell id="43" value="" style="outlineConnect=0;fontColor=#232F3E;gradientColor=none;fillColor=#5A30B5;strokeColor=none;dashed=0;verticalLabelPosition=bottom;verticalAlign=top;align=center;html=1;fontSize=12;fontStyle=0;aspect=fixed;pointerEvents=1;shape=mxgraph.aws4.elastic_network_interface;" parent="1" vertex="1">
          <mxGeometry x="953.5" y="570" width="28" height="28" as="geometry" />
        </mxCell>
        <mxCell id="76" style="edgeStyle=orthogonalEdgeStyle;rounded=0;orthogonalLoop=1;jettySize=auto;html=1;fontColor=#000000;strokeColor=#007FFF;strokeWidth=3;endArrow=oval;endFill=1;startArrow=oval;startFill=1;" parent="1" source="44" target="56" edge="1">
          <mxGeometry relative="1" as="geometry" />
        </mxCell>
        <mxCell id="44" value="" style="outlineConnect=0;fontColor=#232F3E;gradientColor=none;fillColor=#5A30B5;strokeColor=none;dashed=0;verticalLabelPosition=bottom;verticalAlign=top;align=center;html=1;fontSize=12;fontStyle=0;aspect=fixed;pointerEvents=1;shape=mxgraph.aws4.elastic_network_interface;" parent="1" vertex="1">
          <mxGeometry x="903" y="570" width="28" height="28" as="geometry" />
        </mxCell>
        <mxCell id="45" value="" style="rounded=0;whiteSpace=wrap;html=1;strokeWidth=3;fillColor=#dae8fc;strokeColor=none;" parent="1" vertex="1">
          <mxGeometry x="860" y="250" width="190" height="50" as="geometry" />
        </mxCell>
        <mxCell id="51" value="&lt;font color=&quot;#cc6600&quot;&gt;AZ(ap-northeast-1c)&lt;/font&gt;" style="text;html=1;strokeColor=none;fillColor=none;align=center;verticalAlign=middle;whiteSpace=wrap;rounded=0;dashed=1;dashPattern=1 1;fontColor=#000000;" parent="1" vertex="1">
          <mxGeometry x="1160" y="220" width="120" height="20" as="geometry" />
        </mxCell>
        <mxCell id="52" value="&lt;font color=&quot;#cc6600&quot;&gt;AZ(ap-northeast-1d)&lt;/font&gt;" style="text;html=1;strokeColor=none;fillColor=none;align=center;verticalAlign=middle;whiteSpace=wrap;rounded=0;dashed=1;dashPattern=1 1;fontColor=#000000;" parent="1" vertex="1">
          <mxGeometry x="1380" y="220" width="120" height="20" as="geometry" />
        </mxCell>
        <mxCell id="57" value="" style="outlineConnect=0;fontColor=#232F3E;gradientColor=#F78E04;gradientDirection=north;fillColor=#D05C17;strokeColor=#ffffff;dashed=0;verticalLabelPosition=bottom;verticalAlign=top;align=center;html=1;fontSize=12;fontStyle=0;aspect=fixed;shape=mxgraph.aws4.resourceIcon;resIcon=mxgraph.aws4.auto_scaling2;dashPattern=1 1;" parent="1" vertex="1">
          <mxGeometry x="1051.5" y="740.5" width="30" height="30" as="geometry" />
        </mxCell>
        <mxCell id="59" value="" style="outlineConnect=0;fontColor=#232F3E;gradientColor=#F78E04;gradientDirection=north;fillColor=#D05C17;strokeColor=#ffffff;dashed=0;verticalLabelPosition=bottom;verticalAlign=top;align=center;html=1;fontSize=12;fontStyle=0;aspect=fixed;shape=mxgraph.aws4.resourceIcon;resIcon=mxgraph.aws4.ecr;dashPattern=1 1;" parent="1" vertex="1">
          <mxGeometry x="1001.5" y="740.5" width="30" height="30" as="geometry" />
        </mxCell>
        <mxCell id="60" value="" style="outlineConnect=0;fontColor=#232F3E;gradientColor=#945DF2;gradientDirection=north;fillColor=#5A30B5;strokeColor=#ffffff;dashed=0;verticalLabelPosition=bottom;verticalAlign=top;align=center;html=1;fontSize=12;fontStyle=0;aspect=fixed;shape=mxgraph.aws4.resourceIcon;resIcon=mxgraph.aws4.route_53;dashPattern=1 1;" parent="1" vertex="1">
          <mxGeometry x="851.5" y="740" width="30" height="30" as="geometry" />
        </mxCell>
        <mxCell id="61" value="" style="outlineConnect=0;fontColor=#232F3E;gradientColor=#60A337;gradientDirection=north;fillColor=#277116;strokeColor=#ffffff;dashed=0;verticalLabelPosition=bottom;verticalAlign=top;align=center;html=1;fontSize=12;fontStyle=0;aspect=fixed;shape=mxgraph.aws4.resourceIcon;resIcon=mxgraph.aws4.backup;dashPattern=1 1;" parent="1" vertex="1">
          <mxGeometry x="1101.5" y="740.5" width="29" height="29" as="geometry" />
        </mxCell>
        <mxCell id="62" value="" style="outlineConnect=0;fontColor=#232F3E;gradientColor=#60A337;gradientDirection=north;fillColor=#277116;strokeColor=#ffffff;dashed=0;verticalLabelPosition=bottom;verticalAlign=top;align=center;html=1;fontSize=12;fontStyle=0;aspect=fixed;shape=mxgraph.aws4.resourceIcon;resIcon=mxgraph.aws4.s3;dashPattern=1 1;" parent="1" vertex="1">
          <mxGeometry x="1151.5" y="740.5" width="30" height="30" as="geometry" />
        </mxCell>
        <mxCell id="63" value="" style="outlineConnect=0;fontColor=#232F3E;gradientColor=#60A337;gradientDirection=north;fillColor=#277116;strokeColor=#ffffff;dashed=0;verticalLabelPosition=bottom;verticalAlign=top;align=center;html=1;fontSize=12;fontStyle=0;aspect=fixed;shape=mxgraph.aws4.resourceIcon;resIcon=mxgraph.aws4.elastic_file_system;dashPattern=1 1;" parent="1" vertex="1">
          <mxGeometry x="1201.5" y="740.5" width="30" height="30" as="geometry" />
        </mxCell>
        <mxCell id="64" value="" style="outlineConnect=0;fontColor=#232F3E;gradientColor=#60A337;gradientDirection=north;fillColor=#277116;strokeColor=#ffffff;dashed=0;verticalLabelPosition=bottom;verticalAlign=top;align=center;html=1;fontSize=12;fontStyle=0;aspect=fixed;shape=mxgraph.aws4.resourceIcon;resIcon=mxgraph.aws4.elastic_block_store;dashPattern=1 1;" parent="1" vertex="1">
          <mxGeometry x="1251.5" y="740.5" width="30" height="30" as="geometry" />
        </mxCell>
        <mxCell id="69" value="" style="outlineConnect=0;fontColor=#232F3E;gradientColor=#F34482;gradientDirection=north;fillColor=#BC1356;strokeColor=#ffffff;dashed=0;verticalLabelPosition=bottom;verticalAlign=top;align=center;html=1;fontSize=12;fontStyle=0;aspect=fixed;shape=mxgraph.aws4.resourceIcon;resIcon=mxgraph.aws4.cloudformation;dashPattern=1 1;" parent="1" vertex="1">
          <mxGeometry x="1301.5" y="740.5" width="28" height="28" as="geometry" />
        </mxCell>
        <mxCell id="75" value="" style="outlineConnect=0;fontColor=#232F3E;fillColor=#5A30B5;strokeColor=none;dashed=0;verticalLabelPosition=bottom;verticalAlign=top;align=center;html=1;fontSize=12;fontStyle=0;aspect=fixed;pointerEvents=1;shape=mxgraph.aws4.endpoints;dashPattern=1 1;" parent="1" vertex="1">
          <mxGeometry x="1001.5" y="670" width="30" height="30" as="geometry" />
        </mxCell>
        <mxCell id="77" style="edgeStyle=orthogonalEdgeStyle;rounded=0;orthogonalLoop=1;jettySize=auto;html=1;fontColor=#000000;strokeColor=#007FFF;strokeWidth=3;endArrow=oval;endFill=1;startArrow=oval;startFill=1;" parent="1" source="208" target="56" edge="1">
          <mxGeometry relative="1" as="geometry">
            <mxPoint x="1116.0000000000002" y="579.9875902981537" as="sourcePoint" />
            <mxPoint x="905" y="750" as="targetPoint" />
            <Array as="points">
              <mxPoint x="1150" y="620" />
              <mxPoint x="917" y="620" />
            </Array>
          </mxGeometry>
        </mxCell>
        <mxCell id="78" style="edgeStyle=orthogonalEdgeStyle;rounded=0;orthogonalLoop=1;jettySize=auto;html=1;fontColor=#000000;strokeColor=#007FFF;strokeWidth=3;endArrow=oval;endFill=1;startArrow=oval;startFill=1;" parent="1" source="210" edge="1">
          <mxGeometry relative="1" as="geometry">
            <mxPoint x="1334.0000000000002" y="579.9996412418159" as="sourcePoint" />
            <mxPoint x="917" y="741" as="targetPoint" />
            <Array as="points">
              <mxPoint x="1370" y="620" />
              <mxPoint x="917" y="620" />
            </Array>
          </mxGeometry>
        </mxCell>
        <mxCell id="79" style="edgeStyle=orthogonalEdgeStyle;rounded=0;orthogonalLoop=1;jettySize=auto;html=1;fontColor=#000000;strokeColor=#007FFF;strokeWidth=3;endArrow=oval;endFill=1;startArrow=oval;startFill=1;" parent="1" source="43" target="58" edge="1">
          <mxGeometry relative="1" as="geometry">
            <mxPoint x="905" y="587.9996412418159" as="sourcePoint" />
            <mxPoint x="905" y="750" as="targetPoint" />
            <Array as="points">
              <mxPoint x="967" y="660" />
              <mxPoint x="967" y="660" />
            </Array>
          </mxGeometry>
        </mxCell>
        <mxCell id="80" style="edgeStyle=orthogonalEdgeStyle;rounded=0;orthogonalLoop=1;jettySize=auto;html=1;fontColor=#000000;strokeColor=#007FFF;strokeWidth=3;endArrow=oval;endFill=1;startArrow=oval;startFill=1;" parent="1" source="207" target="58" edge="1">
          <mxGeometry relative="1" as="geometry">
            <mxPoint x="1237.034482758621" y="579.9996412418159" as="sourcePoint" />
            <mxPoint x="955" y="750" as="targetPoint" />
            <Array as="points">
              <mxPoint x="1200" y="640" />
              <mxPoint x="967" y="640" />
            </Array>
          </mxGeometry>
        </mxCell>
        <mxCell id="85" style="edgeStyle=orthogonalEdgeStyle;rounded=0;orthogonalLoop=1;jettySize=auto;html=1;fontColor=#000000;startArrow=oval;startFill=1;endArrow=oval;endFill=1;strokeColor=#009900;strokeWidth=3;" parent="1" source="133" target="68" edge="1">
          <mxGeometry relative="1" as="geometry">
            <mxPoint x="1423.5172413793102" y="685" as="sourcePoint" />
            <mxPoint x="1383" y="710" as="targetPoint" />
            <Array as="points" />
          </mxGeometry>
        </mxCell>
        <mxCell id="86" style="edgeStyle=orthogonalEdgeStyle;rounded=0;orthogonalLoop=1;jettySize=auto;html=1;fontColor=#000000;startArrow=oval;startFill=1;endArrow=oval;endFill=1;strokeColor=#009900;strokeWidth=3;" parent="1" source="134" edge="1" target="65">
          <mxGeometry relative="1" as="geometry">
            <mxPoint x="1475.034482758621" y="685" as="sourcePoint" />
            <mxPoint x="1475" y="700" as="targetPoint" />
            <Array as="points" />
          </mxGeometry>
        </mxCell>
        <mxCell id="87" style="edgeStyle=orthogonalEdgeStyle;rounded=0;orthogonalLoop=1;jettySize=auto;html=1;fontColor=#000000;startArrow=oval;startFill=1;endArrow=oval;endFill=1;strokeColor=#009900;strokeWidth=3;" parent="1" source="131" edge="1" target="247">
          <mxGeometry relative="1" as="geometry">
            <mxPoint x="1174" y="690" as="sourcePoint" />
            <mxPoint x="1174" y="700" as="targetPoint" />
            <Array as="points" />
          </mxGeometry>
        </mxCell>
        <mxCell id="88" style="edgeStyle=orthogonalEdgeStyle;rounded=0;orthogonalLoop=1;jettySize=auto;html=1;fontColor=#000000;startArrow=oval;startFill=1;endArrow=oval;endFill=1;strokeColor=#009900;strokeWidth=3;" parent="1" source="129" edge="1" target="246">
          <mxGeometry relative="1" as="geometry">
            <mxPoint x="1073" y="690" as="sourcePoint" />
            <mxPoint x="1073" y="700" as="targetPoint" />
            <Array as="points" />
          </mxGeometry>
        </mxCell>
        <mxCell id="89" style="edgeStyle=orthogonalEdgeStyle;rounded=0;orthogonalLoop=1;jettySize=auto;html=1;fontColor=#000000;startArrow=oval;startFill=1;endArrow=oval;endFill=1;strokeColor=#009900;strokeWidth=3;" parent="1" source="75" edge="1" target="245">
          <mxGeometry relative="1" as="geometry">
            <mxPoint x="1083" y="697" as="sourcePoint" />
            <mxPoint x="1025" y="700" as="targetPoint" />
            <Array as="points" />
          </mxGeometry>
        </mxCell>
        <mxCell id="91" value="" style="rounded=0;whiteSpace=wrap;html=1;strokeColor=#000080;fillColor=#FFFFFF;strokeWidth=3;" parent="1" vertex="1">
          <mxGeometry x="470" y="380" width="190" height="120" as="geometry" />
        </mxCell>
        <mxCell id="92" value="Amazon Linux 2" style="rounded=0;whiteSpace=wrap;html=1;strokeColor=#000080;fillColor=#FFFFFF;strokeWidth=3;fontColor=#000000;" parent="1" vertex="1">
          <mxGeometry x="480" y="460" width="170" height="30" as="geometry" />
        </mxCell>
        <mxCell id="95" value="aws" style="rounded=0;whiteSpace=wrap;html=1;strokeColor=#000080;fillColor=#FFFFFF;strokeWidth=3;fontColor=#000000;" parent="1" vertex="1">
          <mxGeometry x="480" y="420" width="80" height="30" as="geometry" />
        </mxCell>
        <mxCell id="96" value="kubectl" style="rounded=0;whiteSpace=wrap;html=1;strokeColor=#000080;fillColor=#FFFFFF;strokeWidth=3;fontColor=#000000;" parent="1" vertex="1">
          <mxGeometry x="570" y="420" width="80" height="30" as="geometry" />
        </mxCell>
        <mxCell id="97" value="" style="outlineConnect=0;fontColor=#232F3E;gradientColor=#F78E04;gradientDirection=north;fillColor=#D05C17;strokeColor=#ffffff;dashed=0;verticalLabelPosition=bottom;verticalAlign=top;align=center;html=1;fontSize=12;fontStyle=0;aspect=fixed;shape=mxgraph.aws4.resourceIcon;resIcon=mxgraph.aws4.ec2;" parent="1" vertex="1">
          <mxGeometry x="470" y="380" width="30" height="30" as="geometry" />
        </mxCell>
        <mxCell id="99" value="&lt;b&gt;Bastion&lt;/b&gt;" style="text;html=1;strokeColor=none;fillColor=none;align=center;verticalAlign=middle;whiteSpace=wrap;rounded=0;fontColor=#000000;" parent="1" vertex="1">
          <mxGeometry x="600" y="385" width="50" height="20" as="geometry" />
        </mxCell>
        <mxCell id="104" value="" style="rounded=0;whiteSpace=wrap;html=1;strokeWidth=3;fillColor=#dae8fc;strokeColor=none;" parent="1" vertex="1">
          <mxGeometry x="460" y="310" width="210" height="50" as="geometry" />
        </mxCell>
        <mxCell id="107" style="edgeStyle=orthogonalEdgeStyle;rounded=0;orthogonalLoop=1;jettySize=auto;html=1;entryX=1;entryY=0.5;entryDx=0;entryDy=0;startArrow=oval;startFill=1;endArrow=oval;endFill=1;fontColor=#000000;strokeColor=#007FFF;strokeWidth=3;" parent="1" source="106" target="105" edge="1">
          <mxGeometry relative="1" as="geometry">
            <mxPoint x="730" y="315" as="sourcePoint" />
          </mxGeometry>
        </mxCell>
        <mxCell id="108" style="edgeStyle=orthogonalEdgeStyle;rounded=0;orthogonalLoop=1;jettySize=auto;html=1;entryX=0;entryY=0.5;entryDx=0;entryDy=0;startArrow=oval;startFill=1;endArrow=oval;endFill=1;strokeColor=#007FFF;strokeWidth=3;fontColor=#000000;" parent="1" source="106" target="46" edge="1">
          <mxGeometry relative="1" as="geometry" />
        </mxCell>
        <mxCell id="110" value="" style="rounded=0;whiteSpace=wrap;html=1;strokeWidth=3;strokeColor=none;fillColor=#D9FCE2;" parent="1" vertex="1">
          <mxGeometry x="460" y="230" width="210" height="70" as="geometry" />
        </mxCell>
        <mxCell id="111" value="" style="outlineConnect=0;fontColor=#232F3E;gradientColor=none;fillColor=#5A30B5;strokeColor=none;dashed=0;verticalLabelPosition=bottom;verticalAlign=top;align=center;html=1;fontSize=12;fontStyle=0;aspect=fixed;pointerEvents=1;shape=mxgraph.aws4.nat_gateway;dashPattern=1 1;" parent="1" vertex="1">
          <mxGeometry x="555" y="240" width="30" height="30" as="geometry" />
        </mxCell>
        <mxCell id="112" value="" style="outlineConnect=0;fontColor=#232F3E;gradientColor=none;fillColor=#5A30B5;strokeColor=none;dashed=0;verticalLabelPosition=bottom;verticalAlign=top;align=center;html=1;fontSize=12;fontStyle=0;aspect=fixed;pointerEvents=1;shape=mxgraph.aws4.internet_gateway;dashPattern=1 1;" parent="1" vertex="1">
          <mxGeometry x="590" y="180" width="30" height="30" as="geometry" />
        </mxCell>
        <mxCell id="113" value="VPC" style="points=[[0,0],[0.25,0],[0.5,0],[0.75,0],[1,0],[1,0.25],[1,0.5],[1,0.75],[1,1],[0.75,1],[0.5,1],[0.25,1],[0,1],[0,0.75],[0,0.5],[0,0.25]];outlineConnect=0;gradientColor=none;html=1;whiteSpace=wrap;fontSize=12;fontStyle=0;shape=mxgraph.aws4.group;grIcon=mxgraph.aws4.group_vpc;strokeColor=#248814;fillColor=none;verticalAlign=top;align=left;spacingLeft=30;fontColor=#AAB7B8;dashed=0;dashPattern=1 1;" parent="1" vertex="1">
          <mxGeometry x="450" y="540" width="230" height="120" as="geometry" />
        </mxCell>
        <mxCell id="114" value="" style="rounded=0;whiteSpace=wrap;html=1;strokeColor=#000080;fillColor=#FFFFFF;strokeWidth=3;" parent="1" vertex="1">
          <mxGeometry x="470" y="588" width="190" height="40" as="geometry" />
        </mxCell>
        <mxCell id="115" value="" style="outlineConnect=0;fontColor=#232F3E;gradientColor=#F78E04;gradientDirection=north;fillColor=#D05C17;strokeColor=#ffffff;dashed=0;verticalLabelPosition=bottom;verticalAlign=top;align=center;html=1;fontSize=12;fontStyle=0;aspect=fixed;shape=mxgraph.aws4.resourceIcon;resIcon=mxgraph.aws4.ec2;" parent="1" vertex="1">
          <mxGeometry x="470" y="588" width="30" height="30" as="geometry" />
        </mxCell>
        <mxCell id="119" value="Corporate data center" style="points=[[0,0],[0.25,0],[0.5,0],[0.75,0],[1,0],[1,0.25],[1,0.5],[1,0.75],[1,1],[0.75,1],[0.5,1],[0.25,1],[0,1],[0,0.75],[0,0.5],[0,0.25]];outlineConnect=0;gradientColor=none;html=1;whiteSpace=wrap;fontSize=12;fontStyle=0;shape=mxgraph.aws4.group;grIcon=mxgraph.aws4.group_corporate_data_center;strokeColor=#5A6C86;fillColor=none;verticalAlign=top;align=left;spacingLeft=30;fontColor=#5A6C86;dashed=0;dashPattern=1 1;" parent="1" vertex="1">
          <mxGeometry x="80" y="480" width="200" height="340" as="geometry" />
        </mxCell>
        <mxCell id="128" style="edgeStyle=orthogonalEdgeStyle;rounded=0;orthogonalLoop=1;jettySize=auto;html=1;fontColor=#000000;startArrow=oval;startFill=1;endArrow=oval;endFill=1;strokeColor=#009900;strokeWidth=3;" parent="1" source="132" edge="1" target="66">
          <mxGeometry relative="1" as="geometry">
            <mxPoint x="1374.0000000000002" y="685" as="sourcePoint" />
            <mxPoint x="1374" y="700" as="targetPoint" />
            <Array as="points" />
          </mxGeometry>
        </mxCell>
        <mxCell id="129" value="" style="outlineConnect=0;fontColor=#232F3E;fillColor=#5A30B5;strokeColor=none;dashed=0;verticalLabelPosition=bottom;verticalAlign=top;align=center;html=1;fontSize=12;fontStyle=0;aspect=fixed;pointerEvents=1;shape=mxgraph.aws4.endpoints;dashPattern=1 1;" parent="1" vertex="1">
          <mxGeometry x="1051.5" y="670" width="30" height="30" as="geometry" />
        </mxCell>
        <mxCell id="131" value="" style="outlineConnect=0;fontColor=#232F3E;fillColor=#5A30B5;strokeColor=none;dashed=0;verticalLabelPosition=bottom;verticalAlign=top;align=center;html=1;fontSize=12;fontStyle=0;aspect=fixed;pointerEvents=1;shape=mxgraph.aws4.endpoints;dashPattern=1 1;" parent="1" vertex="1">
          <mxGeometry x="1151" y="670" width="30" height="30" as="geometry" />
        </mxCell>
        <mxCell id="132" value="" style="outlineConnect=0;fontColor=#232F3E;fillColor=#5A30B5;strokeColor=none;dashed=0;verticalLabelPosition=bottom;verticalAlign=top;align=center;html=1;fontSize=12;fontStyle=0;aspect=fixed;pointerEvents=1;shape=mxgraph.aws4.endpoints;dashPattern=1 1;" parent="1" vertex="1">
          <mxGeometry x="1351.5" y="670" width="30" height="30" as="geometry" />
        </mxCell>
        <mxCell id="133" value="" style="outlineConnect=0;fontColor=#232F3E;fillColor=#5A30B5;strokeColor=none;dashed=0;verticalLabelPosition=bottom;verticalAlign=top;align=center;html=1;fontSize=12;fontStyle=0;aspect=fixed;pointerEvents=1;shape=mxgraph.aws4.endpoints;dashPattern=1 1;" parent="1" vertex="1">
          <mxGeometry x="1402.5" y="670" width="30" height="30" as="geometry" />
        </mxCell>
        <mxCell id="134" value="" style="outlineConnect=0;fontColor=#232F3E;fillColor=#5A30B5;strokeColor=none;dashed=0;verticalLabelPosition=bottom;verticalAlign=top;align=center;html=1;fontSize=12;fontStyle=0;aspect=fixed;pointerEvents=1;shape=mxgraph.aws4.endpoints;dashPattern=1 1;" parent="1" vertex="1">
          <mxGeometry x="1452.5" y="670" width="30" height="30" as="geometry" />
        </mxCell>
        <mxCell id="138" value="aws-node" style="rounded=0;whiteSpace=wrap;html=1;strokeColor=#000080;fillColor=#FFFFFF;strokeWidth=3;fontColor=#000000;" parent="1" vertex="1">
          <mxGeometry x="1101" y="400" width="70" height="30" as="geometry" />
        </mxCell>
        <mxCell id="139" value="" style="rounded=0;whiteSpace=wrap;html=1;strokeColor=#000080;fillColor=#FFFFFF;strokeWidth=3;" parent="1" vertex="1">
          <mxGeometry x="1310" y="320" width="170" height="240" as="geometry" />
        </mxCell>
        <mxCell id="140" value="Amazon Linux 2" style="rounded=0;whiteSpace=wrap;html=1;strokeColor=#000080;fillColor=#FFFFFF;strokeWidth=3;fontColor=#000000;" parent="1" vertex="1">
          <mxGeometry x="1320" y="520" width="150" height="30" as="geometry" />
        </mxCell>
        <mxCell id="141" value="kubelet" style="rounded=0;whiteSpace=wrap;html=1;strokeColor=#000080;fillColor=#FFFFFF;strokeWidth=3;fontColor=#000000;" parent="1" vertex="1">
          <mxGeometry x="1320" y="480" width="150" height="30" as="geometry" />
        </mxCell>
        <mxCell id="142" value="kube-proxy" style="rounded=0;whiteSpace=wrap;html=1;strokeColor=#000080;fillColor=#FFFFFF;strokeWidth=3;fontColor=#000000;" parent="1" vertex="1">
          <mxGeometry x="1320" y="438.5" width="150" height="30" as="geometry" />
        </mxCell>
        <mxCell id="144" value="" style="outlineConnect=0;fontColor=#232F3E;gradientColor=#F78E04;gradientDirection=north;fillColor=#D05C17;strokeColor=#ffffff;dashed=0;verticalLabelPosition=bottom;verticalAlign=top;align=center;html=1;fontSize=12;fontStyle=0;aspect=fixed;shape=mxgraph.aws4.resourceIcon;resIcon=mxgraph.aws4.ec2;" parent="1" vertex="1">
          <mxGeometry x="1309" y="320" width="30" height="30" as="geometry" />
        </mxCell>
        <mxCell id="145" value="App Pod" style="rounded=0;whiteSpace=wrap;html=1;strokeColor=#000080;fillColor=#FFFFFF;strokeWidth=3;fontColor=#000000;" parent="1" vertex="1">
          <mxGeometry x="1320" y="360" width="150" height="30" as="geometry" />
        </mxCell>
        <mxCell id="146" value="&lt;b&gt;Worker&lt;/b&gt;" style="text;html=1;strokeColor=none;fillColor=none;align=center;verticalAlign=middle;whiteSpace=wrap;rounded=0;fontColor=#000000;" parent="1" vertex="1">
          <mxGeometry x="1420" y="325" width="50" height="20" as="geometry" />
        </mxCell>
        <mxCell id="147" value="aws-node" style="rounded=0;whiteSpace=wrap;html=1;strokeColor=#000080;fillColor=#FFFFFF;strokeWidth=3;fontColor=#000000;" parent="1" vertex="1">
          <mxGeometry x="1320" y="400" width="70" height="30" as="geometry" />
        </mxCell>
        <mxCell id="175" value="" style="rounded=0;whiteSpace=wrap;html=1;strokeColor=#000080;fillColor=#FFFFFF;strokeWidth=3;" parent="1" vertex="1">
          <mxGeometry x="871" y="320" width="170" height="240" as="geometry" />
        </mxCell>
        <mxCell id="176" value="Amazon Linux 2" style="rounded=0;whiteSpace=wrap;html=1;strokeColor=#000080;fillColor=#FFFFFF;strokeWidth=3;fontColor=#000000;" parent="1" vertex="1">
          <mxGeometry x="881" y="520" width="150" height="30" as="geometry" />
        </mxCell>
        <mxCell id="177" value="kubelet" style="rounded=0;whiteSpace=wrap;html=1;strokeColor=#000080;fillColor=#FFFFFF;strokeWidth=3;fontColor=#000000;" parent="1" vertex="1">
          <mxGeometry x="881" y="480" width="150" height="30" as="geometry" />
        </mxCell>
        <mxCell id="178" value="kube-proxy" style="rounded=0;whiteSpace=wrap;html=1;strokeColor=#000080;fillColor=#FFFFFF;strokeWidth=3;fontColor=#000000;" parent="1" vertex="1">
          <mxGeometry x="881" y="438.5" width="150" height="30" as="geometry" />
        </mxCell>
        <mxCell id="179" value="coredns" style="rounded=0;whiteSpace=wrap;html=1;strokeColor=#000080;fillColor=#FFFFFF;strokeWidth=3;fontColor=#000000;" parent="1" vertex="1">
          <mxGeometry x="961" y="400" width="70" height="30" as="geometry" />
        </mxCell>
        <mxCell id="180" value="" style="outlineConnect=0;fontColor=#232F3E;gradientColor=#F78E04;gradientDirection=north;fillColor=#D05C17;strokeColor=#ffffff;dashed=0;verticalLabelPosition=bottom;verticalAlign=top;align=center;html=1;fontSize=12;fontStyle=0;aspect=fixed;shape=mxgraph.aws4.resourceIcon;resIcon=mxgraph.aws4.ec2;" parent="1" vertex="1">
          <mxGeometry x="870" y="320" width="30" height="30" as="geometry" />
        </mxCell>
        <mxCell id="181" value="App Pod" style="rounded=0;whiteSpace=wrap;html=1;strokeColor=#000080;fillColor=#FFFFFF;strokeWidth=3;fontColor=#000000;" parent="1" vertex="1">
          <mxGeometry x="881" y="360" width="150" height="30" as="geometry" />
        </mxCell>
        <mxCell id="182" value="&lt;b&gt;Worker&lt;/b&gt;" style="text;html=1;strokeColor=none;fillColor=none;align=center;verticalAlign=middle;whiteSpace=wrap;rounded=0;fontColor=#000000;" parent="1" vertex="1">
          <mxGeometry x="981" y="325" width="50" height="20" as="geometry" />
        </mxCell>
        <mxCell id="183" value="aws-node" style="rounded=0;whiteSpace=wrap;html=1;strokeColor=#000080;fillColor=#FFFFFF;strokeWidth=3;fontColor=#000000;" parent="1" vertex="1">
          <mxGeometry x="881" y="400" width="70" height="30" as="geometry" />
        </mxCell>
        <mxCell id="184" value="&lt;font color=&quot;#cc6600&quot;&gt;AZ(ap-northeast-1a)&lt;/font&gt;" style="text;html=1;strokeColor=none;fillColor=none;align=center;verticalAlign=middle;whiteSpace=wrap;rounded=0;dashed=1;dashPattern=1 1;fontColor=#000000;" parent="1" vertex="1">
          <mxGeometry x="940" y="220" width="120" height="20" as="geometry" />
        </mxCell>
        <mxCell id="186" value="&lt;font color=&quot;#009900&quot;&gt;VPC (user)&lt;/font&gt;" style="text;html=1;strokeColor=none;fillColor=none;align=center;verticalAlign=middle;whiteSpace=wrap;rounded=0;dashed=1;dashPattern=1 1;fontColor=#000000;" parent="1" vertex="1">
          <mxGeometry x="452" y="543" width="120" height="20" as="geometry" />
        </mxCell>
        <mxCell id="187" value="&lt;font color=&quot;#009900&quot;&gt;VPC (EKS)&lt;/font&gt;" style="text;html=1;strokeColor=none;fillColor=none;align=center;verticalAlign=middle;whiteSpace=wrap;rounded=0;dashed=1;dashPattern=1 1;fontColor=#000000;" parent="1" vertex="1">
          <mxGeometry x="842" y="203" width="120" height="20" as="geometry" />
        </mxCell>
        <mxCell id="188" value="&lt;font color=&quot;#009900&quot;&gt;VPC (Bastion)&lt;/font&gt;" style="text;html=1;strokeColor=none;fillColor=none;align=center;verticalAlign=middle;whiteSpace=wrap;rounded=0;dashed=1;dashPattern=1 1;fontColor=#000000;" parent="1" vertex="1">
          <mxGeometry x="460" y="203" width="120" height="20" as="geometry" />
        </mxCell>
        <mxCell id="189" value="&lt;b&gt;Transit&lt;br&gt;Gateway&lt;/b&gt;" style="text;html=1;strokeColor=none;fillColor=none;align=center;verticalAlign=middle;whiteSpace=wrap;rounded=0;dashed=1;dashPattern=1 1;fontColor=#000000;" parent="1" vertex="1">
          <mxGeometry x="695" y="290" width="120" height="20" as="geometry" />
        </mxCell>
        <mxCell id="190" value="&lt;b&gt;NAT GW&lt;/b&gt;" style="text;html=1;strokeColor=none;fillColor=none;align=center;verticalAlign=middle;whiteSpace=wrap;rounded=0;dashed=1;dashPattern=1 1;fontColor=#000000;" parent="1" vertex="1">
          <mxGeometry x="535" y="270" width="70" height="20" as="geometry" />
        </mxCell>
        <mxCell id="191" value="&lt;b&gt;IGW&lt;/b&gt;" style="text;html=1;strokeColor=none;fillColor=none;align=center;verticalAlign=middle;whiteSpace=wrap;rounded=0;dashed=1;dashPattern=1 1;fontColor=#000000;" parent="1" vertex="1">
          <mxGeometry x="585" y="210" width="40" height="20" as="geometry" />
        </mxCell>
        <mxCell id="192" value="&lt;b&gt;User VM&lt;/b&gt;" style="text;html=1;strokeColor=none;fillColor=none;align=center;verticalAlign=middle;whiteSpace=wrap;rounded=0;dashed=1;dashPattern=1 1;fontColor=#000000;" parent="1" vertex="1">
          <mxGeometry x="587.5" y="590" width="65" height="20" as="geometry" />
        </mxCell>
        <mxCell id="193" value="&lt;b&gt;STS&lt;/b&gt;" style="text;html=1;strokeColor=none;fillColor=none;align=center;verticalAlign=middle;whiteSpace=wrap;rounded=0;dashed=1;dashPattern=1 1;fontColor=#000000;" parent="1" vertex="1">
          <mxGeometry x="1444" y="769.5" width="45" height="20" as="geometry" />
        </mxCell>
        <mxCell id="194" value="&lt;b&gt;SSM&lt;/b&gt;" style="text;html=1;strokeColor=none;fillColor=none;align=center;verticalAlign=middle;whiteSpace=wrap;rounded=0;dashed=1;dashPattern=1 1;fontColor=#000000;" parent="1" vertex="1">
          <mxGeometry x="1393.5" y="769.5" width="45" height="20" as="geometry" />
        </mxCell>
        <mxCell id="195" value="&lt;b&gt;CW&lt;/b&gt;&lt;span style=&quot;color: rgba(0 , 0 , 0 , 0) ; font-family: monospace ; font-size: 0px&quot;&gt;%3CmxGraphModel%3E%3Croot%3E%3CmxCell%20id%3D%220%22%2F%3E%3CmxCell%20id%3D%221%22%20parent%3D%220%22%2F%3E%3CmxCell%20id%3D%222%22%20value%3D%22%26lt%3Bb%26gt%3BSSM%26lt%3B%2Fb%26gt%3B%22%20style%3D%22text%3Bhtml%3D1%3BstrokeColor%3Dnone%3BfillColor%3Dnone%3Balign%3Dcenter%3BverticalAlign%3Dmiddle%3BwhiteSpace%3Dwrap%3Brounded%3D0%3Bdashed%3D1%3BdashPattern%3D1%201%3BfontColor%3D%23000000%3B%22%20vertex%3D%221%22%20parent%3D%221%22%3E%3CmxGeometry%20x%3D%221012%22%20y%3D%22710%22%20width%3D%2245%22%20height%3D%2220%22%20as%3D%22geometry%22%2F%3E%3C%2FmxCell%3E%3C%2Froot%3E%3C%2FmxGraphModel%3E&lt;/span&gt;" style="text;html=1;strokeColor=none;fillColor=none;align=center;verticalAlign=middle;whiteSpace=wrap;rounded=0;dashed=1;dashPattern=1 1;fontColor=#000000;" parent="1" vertex="1">
          <mxGeometry x="1343.5" y="769.5" width="45" height="20" as="geometry" />
        </mxCell>
        <mxCell id="196" value="&lt;b&gt;CFn&lt;/b&gt;" style="text;html=1;strokeColor=none;fillColor=none;align=center;verticalAlign=middle;whiteSpace=wrap;rounded=0;dashed=1;dashPattern=1 1;fontColor=#000000;" parent="1" vertex="1">
          <mxGeometry x="1293" y="769.5" width="45" height="20" as="geometry" />
        </mxCell>
        <mxCell id="197" value="&lt;b&gt;EBS&lt;/b&gt;" style="text;html=1;strokeColor=none;fillColor=none;align=center;verticalAlign=middle;whiteSpace=wrap;rounded=0;dashed=1;dashPattern=1 1;fontColor=#000000;" parent="1" vertex="1">
          <mxGeometry x="1244.5" y="769.5" width="45" height="20" as="geometry" />
        </mxCell>
        <mxCell id="198" value="&lt;b&gt;EFS&lt;/b&gt;&lt;span style=&quot;color: rgba(0 , 0 , 0 , 0) ; font-family: monospace ; font-size: 0px&quot;&gt;%3CmxGraphModel%3E%3Croot%3E%3CmxCell%20id%3D%220%22%2F%3E%3CmxCell%20id%3D%221%22%20parent%3D%220%22%2F%3E%3CmxCell%20id%3D%222%22%20value%3D%22%26lt%3Bb%26gt%3BEBS%26lt%3B%2Fb%26gt%3B%22%20style%3D%22text%3Bhtml%3D1%3BstrokeColor%3Dnone%3BfillColor%3Dnone%3Balign%3Dcenter%3BverticalAlign%3Dmiddle%3BwhiteSpace%3Dwrap%3Brounded%3D0%3Bdashed%3D1%3BdashPattern%3D1%201%3BfontColor%3D%23000000%3B%22%20vertex%3D%221%22%20parent%3D%221%22%3E%3CmxGeometry%20x%3D%22863%22%20y%3D%22710%22%20width%3D%2245%22%20height%3D%2220%22%20as%3D%22geometry%22%2F%3E%3C%2FmxCell%3E%3C%2Froot%3E%3C%2FmxGraphModel%3E&lt;/span&gt;" style="text;html=1;strokeColor=none;fillColor=none;align=center;verticalAlign=middle;whiteSpace=wrap;rounded=0;dashed=1;dashPattern=1 1;fontColor=#000000;" parent="1" vertex="1">
          <mxGeometry x="1194" y="769.5" width="45" height="20" as="geometry" />
        </mxCell>
        <mxCell id="199" value="&lt;b&gt;S3&lt;/b&gt;&lt;span style=&quot;color: rgba(0 , 0 , 0 , 0) ; font-family: monospace ; font-size: 0px&quot;&gt;%3CmxGraphModel%3E%3Croot%3E%3CmxCell%20id%3D%220%22%2F%3E%3CmxCell%20id%3D%221%22%20parent%3D%220%22%2F%3E%3CmxCell%20id%3D%222%22%20value%3D%22%26lt%3Bb%26gt%3BEFS%26lt%3B%2Fb%26gt%3B%26lt%3Bspan%20style%3D%26quot%3Bcolor%3A%20rgba(0%20%2C%200%20%2C%200%20%2C%200)%20%3B%20font-family%3A%20monospace%20%3B%20font-size%3A%200px%26quot%3B%26gt%3B%253CmxGraphModel%253E%253Croot%253E%253CmxCell%2520id%253D%25220%2522%252F%253E%253CmxCell%2520id%253D%25221%2522%2520parent%253D%25220%2522%252F%253E%253CmxCell%2520id%253D%25222%2522%2520value%253D%2522%2526lt%253Bb%2526gt%253BEBS%2526lt%253B%252Fb%2526gt%253B%2522%2520style%253D%2522text%253Bhtml%253D1%253BstrokeColor%253Dnone%253BfillColor%253Dnone%253Balign%253Dcenter%253BverticalAlign%253Dmiddle%253BwhiteSpace%253Dwrap%253Brounded%253D0%253Bdashed%253D1%253BdashPattern%253D1%25201%253BfontColor%253D%2523000000%253B%2522%2520vertex%253D%25221%2522%2520parent%253D%25221%2522%253E%253CmxGeometry%2520x%253D%2522863%2522%2520y%253D%2522710%2522%2520width%253D%252245%2522%2520height%253D%252220%2522%2520as%253D%2522geometry%2522%252F%253E%253C%252FmxCell%253E%253C%252Froot%253E%253C%252FmxGraphModel%253E%26lt%3B%2Fspan%26gt%3B%22%20style%3D%22text%3Bhtml%3D1%3BstrokeColor%3Dnone%3BfillColor%3Dnone%3Balign%3Dcenter%3BverticalAlign%3Dmiddle%3BwhiteSpace%3Dwrap%3Brounded%3D0%3Bdashed%3D1%3BdashPattern%3D1%201%3BfontColor%3D%23000000%3B%22%20vertex%3D%221%22%20parent%3D%221%22%3E%3CmxGeometry%20x%3D%22812.5%22%20y%3D%22710%22%20width%3D%2245%22%20height%3D%2220%22%20as%3D%22geometry%22%2F%3E%3C%2FmxCell%3E%3C%2Froot%3E%3C%2FmxGraphModel%3E&lt;/span&gt;" style="text;html=1;strokeColor=none;fillColor=none;align=center;verticalAlign=middle;whiteSpace=wrap;rounded=0;dashed=1;dashPattern=1 1;fontColor=#000000;" parent="1" vertex="1">
          <mxGeometry x="1144" y="770.5" width="45" height="20" as="geometry" />
        </mxCell>
        <mxCell id="200" value="&lt;b&gt;Backup&lt;/b&gt;&lt;span style=&quot;color: rgba(0 , 0 , 0 , 0) ; font-family: monospace ; font-size: 0px&quot;&gt;%3CmxGraphModel%3E%3Croot%3E%3CmxCell%20id%3D%220%22%2F%3E%3CmxCell%20id%3D%221%22%20parent%3D%220%22%2F%3E%3CmxCell%20id%3D%222%22%20value%3D%22%26lt%3Bb%26gt%3BS3%26lt%3B%2Fb%26gt%3B%26lt%3Bspan%20style%3D%26quot%3Bcolor%3A%20rgba(0%20%2C%200%20%2C%200%20%2C%200)%20%3B%20font-family%3A%20monospace%20%3B%20font-size%3A%200px%26quot%3B%26gt%3B%253CmxGraphModel%253E%253Croot%253E%253CmxCell%2520id%253D%25220%2522%252F%253E%253CmxCell%2520id%253D%25221%2522%2520parent%253D%25220%2522%252F%253E%253CmxCell%2520id%253D%25222%2522%2520value%253D%2522%2526lt%253Bb%2526gt%253BEFS%2526lt%253B%252Fb%2526gt%253B%2526lt%253Bspan%2520style%253D%2526quot%253Bcolor%253A%2520rgba(0%2520%252C%25200%2520%252C%25200%2520%252C%25200)%2520%253B%2520font-family%253A%2520monospace%2520%253B%2520font-size%253A%25200px%2526quot%253B%2526gt%253B%25253CmxGraphModel%25253E%25253Croot%25253E%25253CmxCell%252520id%25253D%2525220%252522%25252F%25253E%25253CmxCell%252520id%25253D%2525221%252522%252520parent%25253D%2525220%252522%25252F%25253E%25253CmxCell%252520id%25253D%2525222%252522%252520value%25253D%252522%252526lt%25253Bb%252526gt%25253BEBS%252526lt%25253B%25252Fb%252526gt%25253B%252522%252520style%25253D%252522text%25253Bhtml%25253D1%25253BstrokeColor%25253Dnone%25253BfillColor%25253Dnone%25253Balign%25253Dcenter%25253BverticalAlign%25253Dmiddle%25253BwhiteSpace%25253Dwrap%25253Brounded%25253D0%25253Bdashed%25253D1%25253BdashPattern%25253D1%2525201%25253BfontColor%25253D%252523000000%25253B%252522%252520vertex%25253D%2525221%252522%252520parent%25253D%2525221%252522%25253E%25253CmxGeometry%252520x%25253D%252522863%252522%252520y%25253D%252522710%252522%252520width%25253D%25252245%252522%252520height%25253D%25252220%252522%252520as%25253D%252522geometry%252522%25252F%25253E%25253C%25252FmxCell%25253E%25253C%25252Froot%25253E%25253C%25252FmxGraphModel%25253E%2526lt%253B%252Fspan%2526gt%253B%2522%2520style%253D%2522text%253Bhtml%253D1%253BstrokeColor%253Dnone%253BfillColor%253Dnone%253Balign%253Dcenter%253BverticalAlign%253Dmiddle%253BwhiteSpace%253Dwrap%253Brounded%253D0%253Bdashed%253D1%253BdashPattern%253D1%25201%253BfontColor%253D%2523000000%253B%2522%2520vertex%253D%25221%2522%2520parent%253D%25221%2522%253E%253CmxGeometry%2520x%253D%2522812.5%2522%2520y%253D%2522710%2522%2520width%253D%252245%2522%2520height%253D%252220%2522%2520as%253D%2522geometry%2522%252F%253E%253C%252FmxCell%253E%253C%252Froot%253E%253C%252FmxGraphModel%253E%26lt%3B%2Fspan%26gt%3B%22%20style%3D%22text%3Bhtml%3D1%3BstrokeColor%3Dnone%3BfillColor%3Dnone%3Balign%3Dcenter%3BverticalAlign%3Dmiddle%3BwhiteSpace%3Dwrap%3Brounded%3D0%3Bdashed%3D1%3BdashPattern%3D1%201%3BfontColor%3D%23000000%3B%22%20vertex%3D%221%22%20parent%3D%221%22%3E%3CmxGeometry%20x%3D%22762.5%22%20y%3D%22710%22%20width%3D%2245%22%20height%3D%2220%22%20as%3D%22geometry%22%2F%3E%3C%2FmxCell%3E%3C%2Froot%3E%3C%2FmxGraphModel%3E&lt;/span&gt;" style="text;html=1;strokeColor=none;fillColor=none;align=center;verticalAlign=middle;whiteSpace=wrap;rounded=0;dashed=1;dashPattern=1 1;fontColor=#000000;" parent="1" vertex="1">
          <mxGeometry x="1093.5" y="768.5" width="45" height="20" as="geometry" />
        </mxCell>
        <mxCell id="201" value="&lt;b&gt;ASG&lt;/b&gt;" style="text;html=1;strokeColor=none;fillColor=none;align=center;verticalAlign=middle;whiteSpace=wrap;rounded=0;dashed=1;dashPattern=1 1;fontColor=#000000;" parent="1" vertex="1">
          <mxGeometry x="1044" y="768.5" width="45" height="20" as="geometry" />
        </mxCell>
        <mxCell id="203" value="&lt;b&gt;ECR&lt;/b&gt;" style="text;html=1;strokeColor=none;fillColor=none;align=center;verticalAlign=middle;whiteSpace=wrap;rounded=0;dashed=1;dashPattern=1 1;fontColor=#000000;" parent="1" vertex="1">
          <mxGeometry x="995" y="768.5" width="45" height="20" as="geometry" />
        </mxCell>
        <mxCell id="204" value="&lt;b&gt;EKS&lt;/b&gt;" style="text;html=1;strokeColor=none;fillColor=none;align=center;verticalAlign=middle;whiteSpace=wrap;rounded=0;dashed=1;dashPattern=1 1;fontColor=#000000;" parent="1" vertex="1">
          <mxGeometry x="943.5" y="770.5" width="45" height="20" as="geometry" />
        </mxCell>
        <mxCell id="205" value="&lt;b&gt;ELB&lt;/b&gt;" style="text;html=1;strokeColor=none;fillColor=none;align=center;verticalAlign=middle;whiteSpace=wrap;rounded=0;dashed=1;dashPattern=1 1;fontColor=#000000;" parent="1" vertex="1">
          <mxGeometry x="894" y="770.5" width="45" height="20" as="geometry" />
        </mxCell>
        <mxCell id="206" value="&lt;b&gt;Route53&lt;/b&gt;" style="text;html=1;strokeColor=none;fillColor=none;align=center;verticalAlign=middle;whiteSpace=wrap;rounded=0;dashed=1;dashPattern=1 1;fontColor=#000000;" parent="1" vertex="1">
          <mxGeometry x="844" y="770.5" width="45" height="20" as="geometry" />
        </mxCell>
        <mxCell id="207" value="" style="outlineConnect=0;fontColor=#232F3E;gradientColor=none;fillColor=#5A30B5;strokeColor=none;dashed=0;verticalLabelPosition=bottom;verticalAlign=top;align=center;html=1;fontSize=12;fontStyle=0;aspect=fixed;pointerEvents=1;shape=mxgraph.aws4.elastic_network_interface;" parent="1" vertex="1">
          <mxGeometry x="1185.75" y="570" width="28" height="28" as="geometry" />
        </mxCell>
        <mxCell id="208" value="" style="outlineConnect=0;fontColor=#232F3E;gradientColor=none;fillColor=#5A30B5;strokeColor=none;dashed=0;verticalLabelPosition=bottom;verticalAlign=top;align=center;html=1;fontSize=12;fontStyle=0;aspect=fixed;pointerEvents=1;shape=mxgraph.aws4.elastic_network_interface;" parent="1" vertex="1">
          <mxGeometry x="1136.25" y="570" width="28" height="28" as="geometry" />
        </mxCell>
        <mxCell id="210" value="" style="outlineConnect=0;fontColor=#232F3E;gradientColor=none;fillColor=#5A30B5;strokeColor=none;dashed=0;verticalLabelPosition=bottom;verticalAlign=top;align=center;html=1;fontSize=12;fontStyle=0;aspect=fixed;pointerEvents=1;shape=mxgraph.aws4.elastic_network_interface;" parent="1" vertex="1">
          <mxGeometry x="1356.25" y="570" width="28" height="28" as="geometry" />
        </mxCell>
        <mxCell id="211" value="" style="ellipse;shape=cloud;whiteSpace=wrap;html=1;fillColor=#dae8fc;strokeColor=none;" parent="1" vertex="1">
          <mxGeometry x="440" y="80" width="360" height="70" as="geometry" />
        </mxCell>
        <mxCell id="222" value="&lt;b&gt;&lt;font color=&quot;#000080&quot;&gt;The Internet&lt;/font&gt;&lt;/b&gt;" style="text;html=1;strokeColor=none;fillColor=none;align=center;verticalAlign=middle;whiteSpace=wrap;rounded=0;dashed=1;dashPattern=1 1;fontColor=#000000;" parent="1" vertex="1">
          <mxGeometry x="450" y="80" width="90" height="20" as="geometry" />
        </mxCell>
        <mxCell id="228" value="" style="rounded=0;whiteSpace=wrap;html=1;" parent="1" vertex="1">
          <mxGeometry x="1289.5" y="80" width="230" height="60" as="geometry" />
        </mxCell>
        <mxCell id="229" value="" style="rounded=0;whiteSpace=wrap;html=1;strokeWidth=3;strokeColor=none;fillColor=#D9FCE2;" parent="1" vertex="1">
          <mxGeometry x="1310" y="95" width="30" height="30" as="geometry" />
        </mxCell>
        <mxCell id="230" value="" style="rounded=0;whiteSpace=wrap;html=1;strokeWidth=3;fillColor=#dae8fc;gradientColor=#DDEBF7;strokeColor=none;" parent="1" vertex="1">
          <mxGeometry x="1414.5" y="95" width="30" height="30" as="geometry" />
        </mxCell>
        <mxCell id="231" value="&lt;b&gt;Private&lt;br&gt;Subnet&lt;/b&gt;" style="text;html=1;strokeColor=none;fillColor=none;align=center;verticalAlign=middle;whiteSpace=wrap;rounded=0;dashed=1;dashPattern=1 1;fontColor=#000000;" parent="1" vertex="1">
          <mxGeometry x="1454.5" y="100" width="45" height="20" as="geometry" />
        </mxCell>
        <mxCell id="232" value="&lt;b&gt;Public&lt;br&gt;subnet&lt;/b&gt;" style="text;html=1;strokeColor=none;fillColor=none;align=center;verticalAlign=middle;whiteSpace=wrap;rounded=0;dashed=1;dashPattern=1 1;fontColor=#000000;" parent="1" vertex="1">
          <mxGeometry x="1345.5" y="100" width="45" height="20" as="geometry" />
        </mxCell>
        <mxCell id="234" value="" style="rounded=0;whiteSpace=wrap;html=1;strokeWidth=3;fillColor=#dae8fc;strokeColor=none;" parent="1" vertex="1">
          <mxGeometry x="1080" y="250" width="190" height="50" as="geometry" />
        </mxCell>
        <mxCell id="235" value="" style="rounded=0;whiteSpace=wrap;html=1;strokeWidth=3;fillColor=#dae8fc;strokeColor=none;" parent="1" vertex="1">
          <mxGeometry x="1299" y="250" width="190" height="50" as="geometry" />
        </mxCell>
        <mxCell id="46" value="&lt;b&gt;&lt;font color=&quot;#ffffff&quot; style=&quot;background-color: rgb(0 , 0 , 128)&quot;&gt;TGW Attachment&lt;/font&gt;&lt;/b&gt;" style="rounded=0;whiteSpace=wrap;html=1;strokeColor=#000080;strokeWidth=3;fontColor=#000000;fillColor=#000080;" parent="1" vertex="1">
          <mxGeometry x="870" y="260" width="610" height="30" as="geometry" />
        </mxCell>
        <mxCell id="240" style="edgeStyle=orthogonalEdgeStyle;rounded=0;orthogonalLoop=1;jettySize=auto;html=1;strokeColor=#007FFF;strokeWidth=3;endArrow=oval;endFill=1;startArrow=oval;startFill=1;" parent="1" source="236" edge="1" target="106">
          <mxGeometry relative="1" as="geometry">
            <mxPoint x="327" y="724.4827586206895" as="sourcePoint" />
            <mxPoint x="760" y="340" as="targetPoint" />
            <Array as="points">
              <mxPoint x="760" y="695" />
            </Array>
          </mxGeometry>
        </mxCell>
        <mxCell id="236" value="" style="outlineConnect=0;fontColor=#232F3E;gradientColor=none;fillColor=#5A30B5;strokeColor=none;dashed=0;verticalLabelPosition=bottom;verticalAlign=top;align=center;html=1;fontSize=12;fontStyle=0;aspect=fixed;pointerEvents=1;shape=mxgraph.aws4.router;" parent="1" vertex="1">
          <mxGeometry x="260" y="680" width="30" height="30" as="geometry" />
        </mxCell>
        <mxCell id="237" value="" style="outlineConnect=0;fontColor=#232F3E;gradientColor=none;fillColor=#5A30B5;strokeColor=none;dashed=0;verticalLabelPosition=bottom;verticalAlign=top;align=center;html=1;fontSize=12;fontStyle=0;aspect=fixed;pointerEvents=1;shape=mxgraph.aws4.vpn_connection;" parent="1" vertex="1">
          <mxGeometry x="358.14" y="708.5" width="28.27" height="31.5" as="geometry" />
        </mxCell>
        <mxCell id="238" value="&lt;b&gt;VPN&lt;br&gt;Connection&lt;br&gt;&lt;/b&gt;" style="text;html=1;strokeColor=none;fillColor=none;align=center;verticalAlign=middle;whiteSpace=wrap;rounded=0;dashed=1;dashPattern=1 1;fontColor=#000000;" parent="1" vertex="1">
          <mxGeometry x="340" y="750" width="65" height="20" as="geometry" />
        </mxCell>
        <mxCell id="239" value="&lt;b&gt;Customer&lt;br&gt;Gateway&lt;br&gt;&lt;/b&gt;" style="text;html=1;strokeColor=none;fillColor=none;align=center;verticalAlign=middle;whiteSpace=wrap;rounded=0;dashed=1;dashPattern=1 1;fontColor=#000000;" parent="1" vertex="1">
          <mxGeometry x="242.5" y="720" width="65" height="20" as="geometry" />
        </mxCell>
        <mxCell id="224" style="edgeStyle=orthogonalEdgeStyle;rounded=0;orthogonalLoop=1;jettySize=auto;html=1;entryX=1;entryY=0.5;entryDx=0;entryDy=0;endArrow=oval;endFill=1;strokeColor=#007FFF;strokeWidth=3;startArrow=oval;startFill=1;" parent="1" source="106" target="113" edge="1">
          <mxGeometry relative="1" as="geometry">
            <Array as="points">
              <mxPoint x="750" y="600" />
            </Array>
          </mxGeometry>
        </mxCell>
        <mxCell id="106" value="" style="outlineConnect=0;fontColor=#232F3E;gradientColor=#945DF2;gradientDirection=north;fillColor=#5A30B5;strokeColor=#ffffff;dashed=0;verticalLabelPosition=bottom;verticalAlign=top;align=center;html=1;fontSize=12;fontStyle=0;aspect=fixed;shape=mxgraph.aws4.resourceIcon;resIcon=mxgraph.aws4.transit_gateway;dashPattern=1 1;" parent="1" vertex="1">
          <mxGeometry x="740" y="320" width="30" height="30" as="geometry" />
        </mxCell>
        <mxCell id="105" value="&lt;b&gt;&lt;font color=&quot;#ffffff&quot; style=&quot;background-color: rgb(0 , 0 , 128)&quot;&gt;TGW Attachment&lt;/font&gt;&lt;/b&gt;" style="rounded=0;whiteSpace=wrap;html=1;strokeColor=#000080;strokeWidth=3;fontColor=#000000;fillColor=#000080;" parent="1" vertex="1">
          <mxGeometry x="470" y="320" width="190" height="30" as="geometry" />
        </mxCell>
        <mxCell id="56" value="" style="outlineConnect=0;fontColor=#232F3E;gradientColor=#945DF2;gradientDirection=north;fillColor=#5A30B5;strokeColor=#ffffff;dashed=0;verticalLabelPosition=bottom;verticalAlign=top;align=center;html=1;fontSize=12;fontStyle=0;aspect=fixed;shape=mxgraph.aws4.resourceIcon;resIcon=mxgraph.aws4.elastic_load_balancing;dashPattern=1 1;" parent="1" vertex="1">
          <mxGeometry x="901.5" y="740.5" width="30" height="30" as="geometry" />
        </mxCell>
        <mxCell id="58" value="" style="outlineConnect=0;fontColor=#232F3E;gradientColor=#F78E04;gradientDirection=north;fillColor=#D05C17;strokeColor=#ffffff;dashed=0;verticalLabelPosition=bottom;verticalAlign=top;align=center;html=1;fontSize=12;fontStyle=0;aspect=fixed;shape=mxgraph.aws4.resourceIcon;resIcon=mxgraph.aws4.eks;dashPattern=1 1;" parent="1" vertex="1">
          <mxGeometry x="951.5" y="740.5" width="30" height="30" as="geometry" />
        </mxCell>
        <mxCell id="65" value="" style="outlineConnect=0;fontColor=#232F3E;gradientColor=#F54749;gradientDirection=north;fillColor=#C7131F;strokeColor=#ffffff;dashed=0;verticalLabelPosition=bottom;verticalAlign=top;align=center;html=1;fontSize=12;fontStyle=0;aspect=fixed;shape=mxgraph.aws4.resourceIcon;resIcon=mxgraph.aws4.identity_and_access_management;dashPattern=1 1;" parent="1" vertex="1">
          <mxGeometry x="1451.5" y="740.5" width="30" height="30" as="geometry" />
        </mxCell>
        <mxCell id="66" value="" style="outlineConnect=0;fontColor=#232F3E;gradientColor=#F34482;gradientDirection=north;fillColor=#BC1356;strokeColor=#ffffff;dashed=0;verticalLabelPosition=bottom;verticalAlign=top;align=center;html=1;fontSize=12;fontStyle=0;aspect=fixed;shape=mxgraph.aws4.resourceIcon;resIcon=mxgraph.aws4.cloudwatch_2;dashPattern=1 1;" parent="1" vertex="1">
          <mxGeometry x="1351.5" y="740.5" width="29" height="29" as="geometry" />
        </mxCell>
        <mxCell id="68" value="" style="outlineConnect=0;fontColor=#232F3E;gradientColor=#F34482;gradientDirection=north;fillColor=#BC1356;strokeColor=#ffffff;dashed=0;verticalLabelPosition=bottom;verticalAlign=top;align=center;html=1;fontSize=12;fontStyle=0;aspect=fixed;shape=mxgraph.aws4.resourceIcon;resIcon=mxgraph.aws4.systems_manager;dashPattern=1 1;" parent="1" vertex="1">
          <mxGeometry x="1402.5" y="740.5" width="29" height="29" as="geometry" />
        </mxCell>
        <mxCell id="245" value="" style="outlineConnect=0;fontColor=#232F3E;gradientColor=#F78E04;gradientDirection=north;fillColor=#D05C17;strokeColor=#ffffff;dashed=0;verticalLabelPosition=bottom;verticalAlign=top;align=center;html=1;fontSize=12;fontStyle=0;aspect=fixed;shape=mxgraph.aws4.resourceIcon;resIcon=mxgraph.aws4.ecr;dashPattern=1 1;" parent="1" vertex="1">
          <mxGeometry x="1001.5" y="740.5" width="30" height="30" as="geometry" />
        </mxCell>
        <mxCell id="246" value="" style="outlineConnect=0;fontColor=#232F3E;gradientColor=#F78E04;gradientDirection=north;fillColor=#D05C17;strokeColor=#ffffff;dashed=0;verticalLabelPosition=bottom;verticalAlign=top;align=center;html=1;fontSize=12;fontStyle=0;aspect=fixed;shape=mxgraph.aws4.resourceIcon;resIcon=mxgraph.aws4.auto_scaling2;dashPattern=1 1;" parent="1" vertex="1">
          <mxGeometry x="1051.5" y="740.5" width="30" height="30" as="geometry" />
        </mxCell>
        <mxCell id="247" value="" style="outlineConnect=0;fontColor=#232F3E;gradientColor=#60A337;gradientDirection=north;fillColor=#277116;strokeColor=#ffffff;dashed=0;verticalLabelPosition=bottom;verticalAlign=top;align=center;html=1;fontSize=12;fontStyle=0;aspect=fixed;shape=mxgraph.aws4.resourceIcon;resIcon=mxgraph.aws4.s3;dashPattern=1 1;" parent="1" vertex="1">
          <mxGeometry x="1151.5" y="740.5" width="30" height="30" as="geometry" />
        </mxCell>
      </root>
    </mxGraphModel>
  </diagram>
</mxfile>
